<svg width="60" height="28" viewBox="0 0 60 28" fill="none" xmlns="http://www.w3.org/2000/svg">
<path d="M0 13.68C0 6.12474 6.11966 0 13.6686 0H46.3314C53.8803 0 60 6.12474 60 13.68C60 21.2353 53.8803 27.36 46.3314 27.36H13.6686C6.11966 27.36 0 21.2353 0 13.68Z" fill="url(#paint0_linear_55_8)"/>
<path d="M30.822 6.6197L28.0401 9.20306C28.0279 9.21443 28.0163 9.22624 28.0054 9.23844H13.8462C11.5466 9.23844 9.67262 11.0618 9.58873 13.3427L7.98642 11.6327C7.63999 11.263 7.05517 11.2578 6.70232 11.6214L4.27975 14.1177C4.26689 13.9142 4.26035 13.709 4.26035 13.5023C4.26035 8.20385 8.55206 3.90857 13.8462 3.90857H28.0054C28.0143 3.91849 28.0236 3.92816 28.0334 3.93754L30.822 6.6197Z" fill="white"/>
<path d="M4.46039 15.4615C5.36409 19.8204 9.2229 23.0961 13.8462 23.0961H30.6043L28.0913 21.1867C27.6284 20.8351 27.6225 20.1404 28.0794 19.7809L30.6395 17.7662H13.8462C12.1512 17.7662 10.6874 16.7756 10.0013 15.3413L7.33675 12.4977L4.46039 15.4615Z" fill="white"/>
<path d="M32.2818 17.8299C32.3067 17.8103 32.3293 17.789 32.3497 17.7662H46.1538C48.4087 17.7662 50.2545 16.013 50.4044 13.7943L51.9907 15.6654C52.3411 16.0787 52.9766 16.0843 53.3341 15.677L55.7243 12.9549C55.7345 13.1361 55.7396 13.3186 55.7396 13.5023C55.7396 18.8008 51.4479 23.0961 46.1538 23.0961H32.3497C32.3274 23.0711 32.3023 23.0479 32.2747 23.0269L28.9183 20.4768L32.2818 17.8299Z" fill="white"/>
<path d="M55.5408 11.5491C54.6394 7.18722 50.7792 3.90857 46.1538 3.90857H29.5404L31.6956 5.98147C32.0634 6.33526 32.0582 6.92584 31.6843 7.27314L29.5679 9.23844H46.1538C47.8531 9.23844 49.3199 10.2341 50.0039 11.6742L52.6698 14.8188L55.5408 11.5491Z" fill="white"/>
<defs>
<linearGradient id="paint0_linear_55_8" x1="22.156" y1="14.9236" x2="78.7549" y2="46.5383" gradientUnits="userSpaceOnUse">
<stop stop-color="#05382A"/>
<stop offset="0.511404" stop-color="#C0964E"/>
</linearGradient>
</defs>
</svg>
